<svg xmlns="http://www.w3.org/2000/svg" style="display:none">
  <!-- icon-house -->
  <symbol id="icon-house" viewBox="0 0 16 16">
    <path d="M8.707 1.5a1 1 0 0 0-1.414 0L.646 8.146a.5.5 0 0 0 .708.708L2 8.207V13.5A1.5 1.5 0 0 0 3.5 15h9a1.5 1.5 0 0 0 1.5-1.5V8.207l.646.647a.5.5 0 0 0 .708-.708L13 5.793V2.5a.5.5 0 0 0-.5-.5h-1a.5.5 0 0 0-.5.5v1.293zM13 7.207V13.5a.5.5 0 0 1-.5.5h-9a.5.5 0 0 1-.5-.5V7.207l5-5z"/>
  </symbol>

  <!-- icon-person-badge -->
  <symbol id="icon-person-badge" viewBox="0 0 16 16">
    <path d="M6.5 2a.5.5 0 0 0 0 1h3a.5.5 0 0 0 0-1zM11 8a3 3 0 1 1-6 0 3 3 0 0 1 6 0"/>
    <path d="M4.5 0A2.5 2.5 0 0 0 2 2.5V14a2 2 0 0 0 2 2h8a2 2 0 0 0 2-2V2.5A2.5 2.5 0 0 0 11.5 0zM3 2.5A1.5 1.5 0 0 1 4.5 1h7A1.5 1.5 0 0 1 13 2.5v10.795a4.2 4.2 0 0 0-.776-.492C11.392 12.387 10.063 12 8 12s-3.392.387-4.224.803a4.2 4.2 0 0 0-.776.492z"/>
  </symbol>

  <!-- icon-taxi-front-fill -->
  <symbol id="icon-taxi-front-fill" viewBox="0 0 16 16">
    <path d="M6 1a1 1 0 0 0-1 1v1h-.181A2.5 2.5 0 0 0 2.52 4.515l-.792 1.848a.8.8 0 0 1-.38.404c-.5.25-.855.715-.965 1.262L.05 9.708a2.5 2.5 0 0 0-.049.49v.413c0 .814.39 1.543 1 1.997V14.5a.5.5 0 0 0 .5.5h2a.5.5 0 0 0 .5-.5v-1.338c1.292.048 2.745.088 4 .088s2.708-.04 4-.088V14.5a.5.5 0 0 0 .5.5h2a.5.5 0 0 0 .5-.5v-1.892c.61-.454 1-1.183 1-1.997v-.413q0-.248-.049-.49l-.335-1.68a1.8 1.8 0 0 0-.964-1.261.8.8 0 0 1-.381-.404l-.792-1.848A2.5 2.5 0 0 0 11.181 3H11V2a1 1 0 0 0-1-1zM4.309 4h7.382a.5.5 0 0 1 .447.276l.956 1.913a.51.51 0 0 1-.497.731c-.91-.073-3.35-.17-4.597-.17s-3.688.097-4.597.17a.51.51 0 0 1-.497-.731l.956-1.913A.5.5 0 0 1 4.309 4M4 10a1 1 0 1 1-2 0 1 1 0 0 1 2 0m10 0a1 1 0 1 1-2 0 1 1 0 0 1 2 0m-9 0a1 1 0 0 1 1-1h4a1 1 0 1 1 0 2H6a1 1 0 0 1-1-1"/>
  </symbol>

  <!-- icon-file-earmark-plus-fill -->
  <symbol id="icon-file-earmark-plus-fill" viewBox="0 0 16 16">
    <path d="M9.293 0H4a2 2 0 0 0-2 2v12a2 2 0 0 0 2 2h8a2 2 0 0 0 2-2V4.707A1 1 0 0 0 13.707 4L10 .293A1 1 0 0 0 9.293 0M9.5 3.5v-2l3 3h-2a1 1 0 0 1-1-1M8.5 7v1.5H10a.5.5 0 0 1 0 1H8.5V11a.5.5 0 0 1-1 0V9.5H6a.5.5 0 0 1 0-1h1.5V7a.5.5 0 0 1 1 0"/>
  </symbol>

  <!-- icon-box-arrow-in-right -->
  <symbol id="icon-box-arrow-in-right" viewBox="0 0 16 16">
    <path fill-rule="evenodd" d="M6 3.5a.5.5 0 0 1 .5-.5h8a.5.5 0 0 1 .5.5v9a.5.5 0 0 1-.5.5h-8a.5.5 0 0 1-.5-.5v-2a.5.5 0 0 0-1 0v2A1.5 1.5 0 0 0 6.5 14h8a1.5 1.5 0 0 0 1.5-1.5v-9A1.5 1.5 0 0 0 14.5 2h-8A1.5 1.5 0 0 0 5 3.5v2a.5.5 0 0 0 1 0z"/>
    <path fill-rule="evenodd" d="M11.854 8.354a.5.5 0 0 0 0-.708l-3-3a.5.5 0 1 0-.708.708L10.293 7.5H1.5a.5.5 0 0 0 0 1h8.793l-2.147 2.146a.5.5 0 0 0 .708.708z"/>
  </symbol>

  <!-- icon-pencil-square -->
  <symbol id="icon-pencil-square" viewBox="0 0 16 16">
    <path d="M15.502 1.94a.5.5 0 0 1 0 .706L14.459 3.69l-2-2L13.502.646a.5.5 0 0 1 .707 0l1.293 1.293zm-1.75 2.456-2-2L4.939 9.21a.5.5 0 0 0-.121.196l-.805 2.414a.25.25 0 0 0 .316.316l2.414-.805a.5.5 0 0 0 .196-.12l6.813-6.814z"/>
    <path fill-rule="evenodd" d="M1 13.5A1.5 1.5 0 0 0 2.5 15h11a1.5 1.5 0 0 0 1.5-1.5v-6a.5.5 0 0 0-1 0v6a.5.5 0 0 1-.5.5h-11a.5.5 0 0 1-.5-.5v-11a.5.5 0 0 1 .5-.5H9a.5.5 0 0 0 0-1H2.5A1.5 1.5 0 0 0 1 2.5z"/>
  </symbol>

  <!-- icon-box-arrow-in-left -->
  <symbol id="icon-box-arrow-in-left" viewBox="0 0 16 16">
    <path fill-rule="evenodd" d="M10 3.5a.5.5 0 0 0-.5-.5h-8a.5.5 0 0 0-.5.5v9a.5.5 0 0 0 .5.5h8a.5.5 0 0 0 .5-.5v-2a.5.5 0 0 1 1 0v2A1.5 1.5 0 0 1 9.5 14h-8A1.5 1.5 0 0 1 0 12.5v-9A1.5 1.5 0 0 1 1.5 2h8A1.5 1.5 0 0 1 11 3.5v2a.5.5 0 0 1-1 0z"/>
    <path fill-rule="evenodd" d="M4.146 8.354a.5.5 0 0 1 0-.708l3-3a.5.5 0 1 1 .708.708L5.707 7.5H14.5a.5.5 0 0 1 0 1H5.707l2.147 2.146a.5.5 0 0 1-.708.708z"/>
  </symbol>

  <!-- icon-facebook -->
  <symbol id="icon-facebook" viewBox="0 0 16 16">
    <path d="M16 8.049c0-4.446-3.582-8.05-8-8.05C3.58 0-.002 3.603-.002 8.05c0 4.017 2.926 7.347 6.75 7.951v-5.625h-2.03V8.05H6.75V6.275c0-2.017 1.195-3.131 3.022-3.131.876 0 1.791.157 1.791.157v1.98h-1.009c-.993 0-1.303.621-1.303 1.258v1.51h2.218l-.354 2.326H9.25V16c3.824-.604 6.75-3.934 6.75-7.951"/>
  </symbol>

  <!-- icon-twitter-x -->
  <symbol id="icon-twitter-x" viewBox="0 0 16 16">
    <path d="M12.6.75h2.454l-5.36 6.142L16 15.25h-4.937l-3.867-5.07-4.425 5.07H.316l5.733-6.57L0 .75h5.063l3.495 4.633L12.601.75Zm-.86 13.028h1.36L4.323 2.145H2.865z"/>
  </symbol>

  <!-- icon-instagram -->
  <symbol id="icon-instagram" viewBox="0 0 16 16">
    <path d="M8 0C5.829 0 5.556.01 4.703.048 3.85.088 3.269.222 2.76.42a3.9 3.9 0 0 0-1.417.923A3.9 3.9 0 0 0 .42 2.76C.222 3.268.087 3.85.048 4.7.01 5.555 0 5.827 0 8.001c0 2.172.01 2.444.048 3.297.04.852.174 1.433.372 1.942.205.526.478.972.923 1.417.444.445.89.719 1.416.923.51.198 1.09.333 1.942.372C5.555 15.99 5.827 16 8 16s2.444-.01 3.298-.048c.851-.04 1.434-.174 1.943-.372a3.9 3.9 0 0 0 1.416-.923c.445-.445.718-.891.923-1.417.197-.509.332-1.09.372-1.942C15.99 10.445 16 10.173 16 8s-.01-2.445-.048-3.299c-.04-.851-.175-1.433-.372-1.941a3.9 3.9 0 0 0-.923-1.417A3.9 3.9 0 0 0 13.24.42c-.51-.198-1.092-.333-1.943-.372C10.443.01 10.172 0 7.998 0zm-.717 1.442h.718c2.136 0 2.389.007 3.232.046.78.035 1.204.166 1.486.275.373.145.64.319.92.599s.453.546.598.92c.11.281.24.705.275 1.485.039.843.047 1.096.047 3.231s-.008 2.389-.047 3.232c-.035.78-.166 1.203-.275 1.485a2.5 2.5 0 0 1-.599.919c-.28.28-.546.453-.92.598-.28.11-.704.24-1.485.276-.843.038-1.096.047-3.232.047s-2.39-.009-3.233-.047c-.78-.036-1.203-.166-1.485-.276a2.5 2.5 0 0 1-.92-.598 2.5 2.5 0 0 1-.6-.92c-.109-.281-.24-.705-.275-1.485-.038-.843-.046-1.096-.046-3.233s.008-2.388.046-3.231c.036-.78.166-1.204.276-1.486.145-.373.319-.64.599-.92s.546-.453.92-.598c.282-.11.705-.24 1.485-.276.738-.034 1.024-.044 2.515-.045zm4.988 1.328a.96.96 0 1 0 0 1.92.96.96 0 0 0 0-1.92m-4.27 1.122a4.109 4.109 0 1 0 0 8.217 4.109 4.109 0 0 0 0-8.217m0 1.441a2.667 2.667 0 1 1 0 5.334 2.667 2.667 0 0 1 0-5.334"/>
  </symbol>

  <!-- icon-person-plus -->
  <symbol id="icon-person-plus" viewBox="0 0 16 16">
    <path d="M6 8a3 3 0 1 0 0-6 3 3 0 0 0 0 6m2-3a2 2 0 1 1-4 0 2 2 0 0 1 4 0m4 8c0 1-1 1-1 1H1s-1 0-1-1 1-4 6-4 6 3 6 4m-1-.004c-.001-.246-.154-.986-.832-1.664C9.516 10.68 8.289 10 6 10s-3.516.68-4.168 1.332c-.678.678-.83 1.418-.832 1.664z"/>
    <path fill-rule="evenodd" d="M13.5 5a.5.5 0 0 1 .5.5V7h1.5a.5.5 0 0 1 0 1H14v1.5a.5.5 0 0 1-1 0V8h-1.5a.5.5 0 0 1 0-1H13V5.5a.5.5 0 0 1 .5-.5"/>
  </symbol>
</svg>
